<?xml version="1.0" encoding="iso-8859-1"?>
<!-- Generator: Adobe Illustrator 22.1.0, SVG Export Plug-In . SVG Version: 6.00 Build 0)  -->
<svg version="1.1" id="Layer_1_1_" xmlns="http://www.w3.org/2000/svg" xmlns:xlink="http://www.w3.org/1999/xlink" x="0px" y="0px"
	 width="128" height="128" viewBox="0 0 48 48" style="enable-background:new 0 0 48 48; fill:#2791ad;" xml:space="preserve">
<path d="M35,24c-6.075,0-11,4.925-11,11c0,6.075,4.925,11,11,11s11-4.925,11-11C46,28.925,41.075,24,35,24z M42,36h-6v6
	c0,0.552-0.448,1-1,1s-1-0.448-1-1v-6h-6c-0.552,0-1-0.448-1-1s0.448-1,1-1h6v-6c0-0.552,0.448-1,1-1s1,0.448,1,1v6h6
	c0.552,0,1,0.448,1,1S42.552,36,42,36z"/>
<path d="M23.479,41H12.5c-0.827,0-1.5-0.673-1.5-1.5v-31C11,7.673,11.673,7,12.5,7H24v8.5c0,2.481,2.019,4.5,4.5,4.5H37v2.17
	c1.045,0.162,2.053,0.436,3,0.833V18.5c0-0.829-0.671-1.5-1.5-1.5h-10c-0.827,0-1.5-0.673-1.5-1.5v-10C27,4.671,26.329,4,25.5,4h-13
	C10.019,4,8,6.019,8,8.5v31c0,2.481,2.019,4.5,4.5,4.5h13.141C24.786,43.111,24.056,42.103,23.479,41z"/>
<line style="fill:none;stroke:#2791ad;stroke-width:3;stroke-linejoin:round;stroke-miterlimit:10;" x1="38.5" y1="18.5" x2="25.5" y2="5.5"/>
</svg>