<?xml version="1.0" encoding="iso-8859-1"?>
<!-- Generator: Adobe Illustrator 22.1.0, SVG Export Plug-In . SVG Version: 6.00 Build 0)  -->
<svg version="1.1" id="Layer_1" xmlns="http://www.w3.org/2000/svg" xmlns:xlink="http://www.w3.org/1999/xlink" x="0px" y="0px"
	 width="128" height="128" viewBox="0 0 48 48" style="enable-background:new 0 0 48 48;" xml:space="preserve">
<path style="fill:none;stroke:#2791ad;stroke-width:3;stroke-linejoin:round;stroke-miterlimit:10;" d="M5.5,36.406V12.5
	c0-1.657,1.343-3,3-3h7.552c0.936,0,1.842,0.328,2.561,0.927L23.5,14.5h14c1.657,0,3,1.343,3,3v3"/>
<path style="fill:none;stroke:#2791ad;stroke-width:3;stroke-linejoin:round;stroke-miterlimit:10;" d="M42.498,20.5H13.453
	c-1.25,0-2.369,0.775-2.808,1.945L5.63,35.797C5.138,37.104,6.105,38.5,7.502,38.5h29.045c1.25,0,2.369-0.775,2.808-1.945
	l5.011-13.341C44.867,21.905,43.9,20.5,42.498,20.5z"/>
</svg>