<?xml version="1.0" encoding="iso-8859-1"?>
<!-- Generator: Adobe Illustrator 24.3.0, SVG Export Plug-In . SVG Version: 6.00 Build 0)  -->
<svg version="1.1" id="Layer_1" xmlns="http://www.w3.org/2000/svg" xmlns:xlink="http://www.w3.org/1999/xlink" x="0px" y="0px"
	 viewBox="0 0 48 48" style="enable-background:new 0 0 48 48;" xml:space="preserve">
<line style="fill:none;stroke:#000000;stroke-width:3;stroke-linecap:round;stroke-linejoin:round;stroke-miterlimit:10;" x1="37.5" y1="33.5" x2="37.5" y2="41.5"/>
<line style="fill:none;stroke:#000000;stroke-width:3;stroke-linecap:round;stroke-linejoin:round;stroke-miterlimit:10;" x1="41.5" y1="37.5" x2="33.5" y2="37.5"/>
<path d="M16.5,9L16.5,9C15.672,9,15,8.328,15,7.5v0C15,6.672,15.672,6,16.5,6h0C17.328,6,18,6.672,18,7.5v0
	C18,8.328,17.328,9,16.5,9z"/>
<path d="M22.5,9L22.5,9C21.672,9,21,8.328,21,7.5v0C21,6.672,21.672,6,22.5,6h0C23.328,6,24,6.672,24,7.5v0
	C24,8.328,23.328,9,22.5,9z"/>
<path d="M28.5,9L28.5,9C27.672,9,27,8.328,27,7.5v0C27,6.672,27.672,6,28.5,6h0C29.328,6,30,6.672,30,7.5v0
	C30,8.328,29.328,9,28.5,9z"/>
<path d="M16.5,39L16.5,39c-0.828,0-1.5-0.672-1.5-1.5v0c0-0.828,0.672-1.5,1.5-1.5h0c0.828,0,1.5,0.672,1.5,1.5v0
	C18,38.328,17.328,39,16.5,39z"/>
<path d="M22.5,39L22.5,39c-0.828,0-1.5-0.672-1.5-1.5v0c0-0.828,0.672-1.5,1.5-1.5h0c0.828,0,1.5,0.672,1.5,1.5v0
	C24,38.328,23.328,39,22.5,39z"/>
<path d="M28.5,39L28.5,39c-0.828,0-1.5-0.672-1.5-1.5v0c0-0.828,0.672-1.5,1.5-1.5h0c0.828,0,1.5,0.672,1.5,1.5v0
	C30,38.328,29.328,39,28.5,39z"/>
<path style="fill:none;stroke:#000000;stroke-width:3;stroke-linecap:round;stroke-linejoin:round;stroke-miterlimit:10;" d="
	M7.5,33.5c0,2.209,1.791,4,4,4"/>
<path d="M7.5,24L7.5,24C6.672,24,6,23.328,6,22.5v0C6,21.672,6.672,21,7.5,21h0C8.328,21,9,21.672,9,22.5v0
	C9,23.328,8.328,24,7.5,24z"/>
<path d="M7.5,30L7.5,30C6.672,30,6,29.328,6,28.5v0C6,27.672,6.672,27,7.5,27h0C8.328,27,9,27.672,9,28.5v0
	C9,29.328,8.328,30,7.5,30z"/>
<path d="M7.5,18L7.5,18C6.672,18,6,17.328,6,16.5v0C6,15.672,6.672,15,7.5,15h0C8.328,15,9,15.672,9,16.5v0
	C9,17.328,8.328,18,7.5,18z"/>
<path d="M37.5,24L37.5,24c-0.828,0-1.5-0.672-1.5-1.5v0c0-0.828,0.672-1.5,1.5-1.5l0,0c0.828,0,1.5,0.672,1.5,1.5v0
	C39,23.328,38.328,24,37.5,24z"/>
<path d="M37.5,30L37.5,30c-0.828,0-1.5-0.672-1.5-1.5v0c0-0.828,0.672-1.5,1.5-1.5l0,0c0.828,0,1.5,0.672,1.5,1.5v0
	C39,29.328,38.328,30,37.5,30z"/>
<path d="M37.5,18L37.5,18c-0.828,0-1.5-0.672-1.5-1.5v0c0-0.828,0.672-1.5,1.5-1.5l0,0c0.828,0,1.5,0.672,1.5,1.5v0
	C39,17.328,38.328,18,37.5,18z"/>
<path style="fill:none;stroke:#000000;stroke-width:3;stroke-linecap:round;stroke-linejoin:round;stroke-miterlimit:10;" d="
	M11.5,7.5c-2.209,0-4,1.791-4,4"/>
<path style="fill:none;stroke:#000000;stroke-width:3;stroke-linecap:round;stroke-linejoin:round;stroke-miterlimit:10;" d="
	M37.5,11.5c0-2.209-1.791-4-4-4"/>
</svg>