<?xml version="1.0" encoding="iso-8859-1"?>
<!-- Generator: Adobe Illustrator 29.1.0, SVG Export Plug-In . SVG Version: 9.03 Build 55587)  -->
<svg version="1.1" id="Layer_1" xmlns="http://www.w3.org/2000/svg" xmlns:xlink="http://www.w3.org/1999/xlink" x="0px" y="0px"
	 viewBox="0 0 50 50" style="enable-background:new 0 0 50 50;" xml:space="preserve">
<path style="fill:#FD2923;" d="M43.447,9.246c-0.723-1.539-2.008-2.742-3.33-3.769c-0.907-0.704-1.844-1.382-2.802-2.014
	c-0.889-0.587-1.884-0.889-2.876-0.372c-0.729,0.38-0.559,1.311,0,1.727c0.816,0.607,1.506,1.387,2.025,2.26
	c0.364,0.613,1.184,1.975,0.669,2.682c-0.528,0.725-1.099-1.102-1.287-1.402c-0.732-1.172-2.093-1.011-2.593,0.269
	c-0.826,2.113-0.281,4.719,0.565,6.744c0.61,1.462,1.603,2.684,2.929,3.391c-0.085,0.386-0.175,0.772-0.287,1.149
	c-0.08,0.269-0.153,0.429-0.34,0.547c-0.226,0.143-0.65,0.24-0.97,0.34c-1.21,0.377-2.421,0.755-3.631,1.132
	c-0.126-1.305-0.501-2.53-1.073-3.717c0.136-0.075,0.267-0.161,0.389-0.264c0.13-0.109,0.243-0.259,0.329-0.402
	c0.094-0.157,0.17-0.343,0.212-0.523c0.088-0.383,0.084-0.744,0.021-1.127c-0.116-0.706-0.695-1.307-1.399-1.451
	c-0.544-0.111-1.119-0.029-1.596,0.258c-0.174-0.289-0.347-0.594-0.541-0.882c0.746-1.055,1.121-2.415,1.403-3.629
	c0.432-1.863,0.583-3.79,0.44-5.696c-0.041-0.539-0.431-1-1-1c-0.51,0-1.041,0.458-1,1c0.009,0.116,0.008,0.233,0.015,0.349
	c-0.009,0.053-0.032,0.095-0.033,0.153c-0.021,1.536-0.242,3.045-0.672,4.52c-0.197,0.676-0.417,1.367-0.726,2.001
	c-0.08,0.163-0.208,0.393-0.301,0.53c-0.229-0.246-0.46-0.489-0.675-0.751c-0.389-0.475-0.719-1.042-0.951-1.607
	c-0.51-1.239-0.659-2.618-0.398-3.905c0.058-0.289-0.001-0.578-0.148-0.811c0.089-0.521-0.16-1.054-0.699-1.203
	c-0.49-0.135-1.126,0.166-1.23,0.698c-0.397,2.031-0.523,4.218-0.049,6.25c0.282,1.208,0.885,2.169,1.714,2.945
	c-0.377,0.364-0.723,0.776-1.034,1.179c-0.307-0.228-0.634-0.357-1.018-0.397c-0.724-0.075-1.376,0.428-1.647,1.068
	c-0.265,0.629-0.175,1.308,0.155,1.896c0.131,0.234,0.298,0.442,0.479,0.638c-0.045,0.101-0.089,0.202-0.131,0.304
	c-0.503,1.005-0.837,2.085-1.011,3.207c-0.824,0.015-1.649,0.024-2.468-0.141c-0.396-0.08-0.787-0.182-1.172-0.305
	c-0.079-0.025-0.235-0.079-0.28-0.091c-0.003-0.001-0.01-0.006-0.014-0.009c-0.013-0.024-0.025-0.044-0.024-0.04
	c-0.008-0.031-0.054-0.145-0.075-0.202c-0.189-0.513-0.345-1.035-0.487-1.562c0.638-0.402,1.215-0.912,1.683-1.454
	c2.322-2.691,2.637-6.321,1.948-9.687c-0.241-1.176-1.869-0.786-1.964,0.266c-0.092,1.009-0.593,2.135-1.448,2.724
	c-0.238,0.164-0.677,0.357-0.89,0.061c-0.225-0.311-0.056-0.988,0.008-1.329c0.2-1.067,0.59-2.073,1.168-2.992
	c0.596-0.947,1.811-1.735,1.779-2.948c-0.022-0.814-0.82-1.171-1.505-0.863c-1.794,0.805-3.449,1.877-4.931,3.169
	C9.3,7.358,7.898,8.815,7.124,10.486c-1.382,2.984-0.279,6.394,2.286,8.117c0.375,0.817,0.784,1.617,1.281,2.37
	c0.659,0.998,1.414,2.094,2.487,2.684c1.155,0.636,2.604,0.607,3.887,0.646c0.704,0.021,1.409,0.021,2.113,0.001
	c0.015,0.677,0.071,1.348,0.15,2.009c-0.912,0.502-1.824,1.003-2.735,1.507c-0.354,0.196-0.282,0.213-0.618,0.024
	c-0.42-0.236-0.834-0.484-1.25-0.726c-0.833-0.484-1.667-0.967-2.5-1.451c-1.115-0.647-2.124,1.08-1.01,1.727
	c0.953,0.553,1.905,1.106,2.858,1.659c0.895,0.519,1.754,1.161,2.837,0.815c0.497-0.159,0.959-0.468,1.414-0.718
	c0.473-0.261,0.946-0.521,1.419-0.782c0.054,0.169,0.109,0.338,0.173,0.503c-0.214,0.133-0.431,0.26-0.641,0.399
	c-0.751,0.498-1.44,1.138-2.225,1.579c-0.756,0.425-1.862,0.225-2.701,0.235c-1.109,0.013-2.218,0.026-3.326,0.039
	c-1.286,0.015-1.29,2.015,0,2c1.183-0.014,2.365-0.028,3.548-0.042c1.051-0.012,2.196,0.1,3.174-0.346
	c0.858-0.391,1.589-1.1,2.369-1.625c0.252-0.17,0.513-0.325,0.771-0.486c0.141,0.186,0.292,0.364,0.454,0.534
	c-0.312,0.809-0.464,1.69-0.517,2.587c-0.498,0.02-0.995,0.064-1.492,0.134c-0.961,0.135-2.087,0.236-2.581,1.19
	c-0.887,1.713-1.632,3.507-2.252,5.333c-0.174,0.511,0.2,1.093,0.698,1.23c0.548,0.15,1.056-0.185,1.23-0.698
	c0.524-1.544,1.146-3.048,1.874-4.507c0.017-0.035,0.115-0.216,0.183-0.348c0.076-0.019,0.158-0.046,0.203-0.057
	c0.364-0.084,0.745-0.159,1.107-0.204c0.344-0.044,0.691-0.059,1.038-0.071c0.026,0.427,0.058,0.848,0.098,1.25
	c0.096,0.961,0.245,1.974,0.522,2.937c-1.697,0.538-3.238,1.803-3.341,3.595c-0.07,1.208,0.795,2.236,1.9,2.615
	c0.6,0.206,1.263,0.189,1.875,0.046c0.314-0.074,0.619-0.199,0.91-0.338c0.166-0.079,0.376-0.227,0.542-0.269
	c0.298,0.278,0.563,0.557,0.983,0.722c0.459,0.18,0.949,0.23,1.436,0.133c0.433-0.087,0.811-0.31,1.18-0.54
	c0.334-0.208,0.483-0.346,0.861-0.213c1.118,0.395,2.088,0.767,3.301,0.585c0.941-0.141,1.937-0.593,2.335-1.516
	c0.779-1.806-1.511-3.844-2.873-4.653c-0.098-0.058-0.204-0.112-0.307-0.166c0.335-1.32,0.45-2.725,0.423-3.995
	c0.251,0.026,0.524,0.073,0.809,0.139c0.163,0.037,0.324,0.079,0.484,0.126c0.044,0.013,0.054,0.014,0.076,0.018
	c0.338,0.414,2.292,3.368,2.485,3.648c0.305,0.445,0.878,0.645,1.368,0.359c0.441-0.258,0.666-0.921,0.359-1.368
	c-0.474-0.692-0.948-1.383-1.422-2.075c-0.23-0.336-0.461-0.673-0.692-1.009c-0.243-0.355-0.469-0.775-0.788-1.067
	c-0.597-0.548-1.635-0.643-2.404-0.74c-0.15-0.019-0.299-0.016-0.449-0.028c-0.156-1.014-0.415-2.011-0.775-2.97
	c0.694,0.38,1.387,0.76,2.08,1.14c0.914,0.501,1.85,1.176,2.942,1.059c1.064-0.114,2.093-0.528,3.163-0.665
	c1.094-0.139,2.203-0.15,3.302-0.074c1.285,0.089,1.279-1.911,0-2c-2.079-0.144-4.151,0.086-6.16,0.632
	c-0.43,0.117-0.642,0.176-1.055-0.031c-0.47-0.236-0.926-0.506-1.387-0.759c-0.686-0.376-1.371-0.751-2.057-1.127
	c0.006-0.015,0.013-0.029,0.019-0.044c0.137-0.355,0.244-0.733,0.348-1.111c0.72,0.119,1.435,0.293,2.122,0.534
	c0.909,0.319,1.692,0.784,2.69,0.631c0.911-0.139,1.682-0.665,2.473-1.102c0.82-0.453,1.667-0.85,2.541-1.185
	c0.504-0.193,0.852-0.673,0.698-1.23c-0.133-0.482-0.723-0.893-1.23-0.698c-0.89,0.341-1.766,0.723-2.61,1.166
	c-0.672,0.352-1.383,0.941-2.139,1.079c-0.352,0.064-0.659-0.095-0.976-0.229c-0.414-0.176-0.832-0.338-1.26-0.475
	c-0.622-0.199-1.257-0.329-1.897-0.436c0.04-0.276,0.066-0.553,0.095-0.829c0.534-0.068,1.069-0.135,1.602-0.211
	c1.379-0.198,2.83-0.367,4.16-0.796c1.29-0.417,2.082-1.251,2.692-2.432c0.523-1.012,1.037-2.028,1.553-3.043
	c0.04-0.019,0.085-0.038,0.124-0.057c1.632-0.812,2.413-2.277,2.603-4.04C44.357,12.851,44.217,10.886,43.447,9.246z"/>
<g>
	<path style="fill:#231F20;" d="M9.368,19.215c0.382,0.292,0.854,0.49,1.33,0.558c0.066,0.021,0.133,0.024,0.199,0.009
		c0.067-0.003,0.129-0.023,0.186-0.059c0.104-0.061,0.203-0.18,0.23-0.299c0.029-0.128,0.023-0.272-0.05-0.385
		c-0.065-0.101-0.174-0.212-0.299-0.23c-0.22-0.031-0.433-0.09-0.638-0.175c0.04,0.017,0.08,0.034,0.119,0.05
		c-0.204-0.087-0.396-0.198-0.572-0.333c-0.096-0.073-0.275-0.081-0.385-0.05c-0.116,0.032-0.242,0.122-0.299,0.23
		c-0.061,0.116-0.092,0.257-0.05,0.385c0.017,0.04,0.034,0.08,0.05,0.119C9.233,19.111,9.292,19.171,9.368,19.215L9.368,19.215z"/>
</g>
<g>
	<path style="fill:#231F20;" d="M13.762,20.084c0.22,0.026,0.447,0.003,0.662-0.046c0.213-0.049,0.424-0.138,0.608-0.255
		c0.109-0.069,0.195-0.173,0.23-0.299c0.033-0.12,0.018-0.279-0.05-0.385c-0.069-0.107-0.171-0.201-0.299-0.23
		c-0.128-0.029-0.271-0.022-0.385,0.05c-0.073,0.046-0.148,0.086-0.228,0.12c0.04-0.017,0.08-0.034,0.119-0.05
		c-0.127,0.053-0.26,0.09-0.396,0.109c0.044-0.006,0.089-0.012,0.133-0.018c-0.131,0.017-0.263,0.019-0.394,0.004
		c-0.119-0.014-0.273,0.066-0.354,0.146c-0.087,0.087-0.152,0.229-0.146,0.354c0.006,0.129,0.048,0.263,0.146,0.354
		c0.034,0.026,0.067,0.052,0.101,0.078C13.588,20.061,13.672,20.083,13.762,20.084L13.762,20.084z"/>
</g>
<g>
	<path style="fill:#231F20;" d="M37.055,19.476c0.257,0.054,0.515,0.107,0.772,0.161c0.132,0.027,0.266,0.019,0.385-0.05
		c0.104-0.061,0.203-0.18,0.23-0.299c0.029-0.128,0.023-0.272-0.05-0.385c-0.068-0.106-0.172-0.203-0.299-0.23
		c-0.257-0.054-0.515-0.107-0.772-0.161c-0.132-0.027-0.266-0.019-0.385,0.05c-0.104,0.061-0.203,0.18-0.23,0.299
		c-0.029,0.128-0.023,0.272,0.05,0.385C36.825,19.352,36.928,19.45,37.055,19.476L37.055,19.476z"/>
</g>
<g>
	<path style="fill:#231F20;" d="M40.45,19.572c0.322-0.047,0.643-0.094,0.965-0.14c0.115-0.017,0.243-0.134,0.299-0.23
		c0.063-0.107,0.089-0.265,0.05-0.385c-0.039-0.121-0.114-0.238-0.23-0.299c-0.04-0.017-0.08-0.034-0.119-0.05
		c-0.089-0.024-0.177-0.024-0.266,0c-0.322,0.047-0.643,0.094-0.965,0.14c-0.115,0.017-0.243,0.134-0.299,0.23
		c-0.063,0.107-0.089,0.265-0.05,0.385c0.039,0.121,0.114,0.238,0.23,0.299c0.04,0.017,0.08,0.034,0.119,0.05
		C40.272,19.596,40.361,19.596,40.45,19.572L40.45,19.572z"/>
</g>
<g>
	<path style="fill:#231F20;" d="M21.846,32.032c2.516,0.727,5.411,1.005,7.67-0.586c0.522-0.368,0.023-1.235-0.505-0.863
		c-2.049,1.442-4.624,1.143-6.9,0.485C21.492,30.889,21.228,31.853,21.846,32.032L21.846,32.032z"/>
</g>
<g>
	<path style="fill:#231F20;" d="M22.023,36.802c1.104,0.645,2.371,0.989,3.651,0.98c1.385-0.01,2.617-0.498,3.856-1.069
		c0.584-0.269,0.076-1.131-0.505-0.863c-1.077,0.496-2.149,0.923-3.352,0.932c-1.109,0.008-2.19-0.285-3.146-0.843
		C21.971,35.613,21.467,36.477,22.023,36.802L22.023,36.802z"/>
</g>
<g>
	<path style="fill:#231F20;" d="M21.667,40.754c1.126,0.879,2.471,1.395,3.904,1.444c1.524,0.052,3.012-0.504,4.337-1.213
		c0.568-0.304,0.063-1.168-0.505-0.863c-1.136,0.609-2.404,1.097-3.711,1.08c-1.189-0.016-2.38-0.421-3.319-1.154
		C21.872,39.655,21.16,40.358,21.667,40.754L21.667,40.754z"/>
</g>
<g>
	<path style="fill:#FFFFFF;" d="M24.011,17.207c0-0.016,0-0.032,0-0.048c0.008-0.207-0.035-0.399-0.129-0.578
		c-0.06-0.186-0.164-0.347-0.31-0.483c-0.136-0.146-0.297-0.25-0.483-0.31c-0.179-0.094-0.371-0.137-0.578-0.129
		c-0.133,0.018-0.266,0.036-0.399,0.054c-0.254,0.071-0.475,0.2-0.662,0.386c-0.078,0.101-0.156,0.202-0.235,0.304
		c-0.136,0.234-0.204,0.486-0.205,0.757c0,0.016,0,0.032,0,0.048c-0.008,0.207,0.035,0.399,0.129,0.578
		c0.06,0.186,0.164,0.347,0.31,0.483c0.136,0.146,0.297,0.25,0.483,0.31c0.179,0.094,0.371,0.137,0.578,0.129
		c0.133-0.018,0.266-0.036,0.399-0.054c0.254-0.071,0.475-0.2,0.662-0.386c0.078-0.101,0.156-0.202,0.235-0.304
		C23.942,17.731,24.01,17.478,24.011,17.207L24.011,17.207z"/>
</g>
<g>
	<path style="fill:#FFFFFF;" d="M30.034,17.981c0.016-0.016,0.032-0.032,0.048-0.048c0.146-0.136,0.25-0.297,0.31-0.483
		c0.094-0.179,0.137-0.371,0.129-0.578c0.008-0.207-0.035-0.399-0.129-0.578c-0.06-0.186-0.164-0.347-0.31-0.483
		c-0.101-0.078-0.202-0.156-0.304-0.235c-0.234-0.136-0.486-0.204-0.757-0.205c-0.133,0.018-0.266,0.036-0.399,0.054
		c-0.254,0.071-0.475,0.2-0.662,0.386c-0.016,0.016-0.032,0.032-0.048,0.048c-0.146,0.136-0.25,0.297-0.31,0.483
		c-0.094,0.179-0.137,0.371-0.129,0.578c-0.008,0.207,0.035,0.399,0.129,0.578c0.06,0.186,0.164,0.347,0.31,0.483
		c0.101,0.078,0.202,0.156,0.304,0.235c0.234,0.136,0.486,0.204,0.757,0.205c0.133-0.018,0.266-0.036,0.399-0.054
		C29.626,18.295,29.847,18.167,30.034,17.981L30.034,17.981z"/>
</g>
<g>
	<path style="fill:#99C93C;" d="M38.118,39.316c1.028,1.163,2.057,2.326,3.085,3.489c0.348,0.393,1.064,0.381,1.414,0
		c0.385-0.419,0.371-0.995,0-1.414c-1.028-1.163-2.057-2.326-3.085-3.489c-0.348-0.393-1.064-0.381-1.414,0
		C37.733,38.321,37.747,38.897,38.118,39.316L38.118,39.316z"/>
</g>
<g>
	<path style="fill:#99C93C;" d="M39.317,35.863c1.746,0.869,3.491,1.739,5.237,2.608c0.468,0.233,1.104,0.14,1.368-0.359
		c0.239-0.453,0.141-1.119-0.359-1.368c-1.746-0.869-3.491-1.739-5.237-2.608c-0.468-0.233-1.104-0.14-1.368,0.359
		C38.719,34.948,38.817,35.615,39.317,35.863L39.317,35.863z"/>
</g>
<g>
	<path style="fill:#429AD4;" d="M2.929,9.408c-1.125,2.853-0.856,6.157,0.619,8.832c0.622,1.127,2.35,0.119,1.727-1.009
		c-1.24-2.247-1.353-4.918-0.418-7.291c0.198-0.503-0.217-1.098-0.698-1.23C3.592,8.554,3.128,8.904,2.929,9.408L2.929,9.408z"/>
</g>
<g>
	<path style="fill:#429AD4;" d="M5.335,6.665C5.367,6.696,5.399,6.728,5.431,6.76c0.091,0.098,0.198,0.166,0.322,0.207
		C5.872,7.03,6.001,7.058,6.138,7.053C6.276,7.058,6.404,7.03,6.524,6.967c0.124-0.04,0.231-0.109,0.322-0.207
		C6.898,6.693,6.95,6.625,7.002,6.558c0.09-0.156,0.136-0.324,0.137-0.505C7.126,5.965,7.114,5.876,7.103,5.787
		C7.055,5.618,6.969,5.471,6.845,5.346C6.813,5.314,6.782,5.282,6.75,5.25C6.659,5.153,6.552,5.084,6.428,5.044
		C6.309,4.981,6.18,4.952,6.043,4.957C5.905,4.952,5.776,4.981,5.657,5.044C5.533,5.084,5.426,5.153,5.335,5.25
		C5.283,5.318,5.231,5.385,5.179,5.453c-0.09,0.156-0.136,0.324-0.137,0.505c0.012,0.089,0.024,0.177,0.036,0.266
		C5.126,6.393,5.212,6.54,5.335,6.665L5.335,6.665z"/>
</g>
</svg>