<?xml version="1.0" encoding="iso-8859-1"?>
<!-- Generator: Adobe Illustrator 24.3.0, SVG Export Plug-In . SVG Version: 6.00 Build 0)  -->
<svg version="1.1" id="Layer_1" xmlns="http://www.w3.org/2000/svg" xmlns:xlink="http://www.w3.org/1999/xlink" x="0px" y="0px"
	 viewBox="0 0 48 48" style="enable-background:new 0 0 48 48;" xml:space="preserve">
<path style="fill:#215a6a;" d="M36.5,6h-25C8.468,6,6,8.468,6,11.5v25c0,3.032,2.468,5.5,5.5,5.5h25c3.032,0,5.5-2.468,5.5-5.5v-25
	C42,8.468,39.532,6,36.5,6z M18,35c0,1.105-0.895,2-2,2h-3c-1.105,0-2-0.895-2-2V13c0-1.105,0.895-2,2-2h3c1.105,0,2,0.895,2,2V35z"
	/>
</svg>